<?xml version="1.0" ?><svg height="24" id="svg8" version="1.1" viewBox="0 0 24 24" width="24" xmlns="http://www.w3.org/2000/svg" xmlns:cc="http://creativecommons.org/ns#" xmlns:dc="http://purl.org/dc/elements/1.1/" xmlns:rdf="http://www.w3.org/1999/02/22-rdf-syntax-ns#" xmlns:svg="http://www.w3.org/2000/svg"><defs id="defs2"><rect height="7.0346723" id="rect2504" width="7.9207187" x="-1.1008456" y="289.81766"/></defs><g id="g2963" style="display:inline;stroke-width:0.262528;stroke-miterlimit:4;stroke-dasharray:none" transform="matrix(3.7984262,0,0,3.819826,-0.05887475,-1110.3615)"><path d="m 20.267578,48.617188 v 0.498046 11.064454 h -2.144531 v -9.921876 -0.5 h -0.994141 v 0.5 9.921876 H 14.992188 V 51.75 51.242188 h -1 V 51.75 60.179688 H 11.638672 11.142578 V 61.1875 h 0.496094 10.410156 0.496094 V 60.179688 H 22.048828 21.261719 V 49.115234 48.617188 Z" id="path2866" style="color:#000000;font-style:normal;font-variant:normal;font-weight:normal;font-stretch:normal;font-size:medium;line-height:normal;font-family:sans-serif;font-variant-ligatures:normal;font-variant-position:normal;font-variant-caps:normal;font-variant-numeric:normal;font-variant-alternates:normal;font-variant-east-asian:normal;font-feature-settings:normal;font-variation-settings:normal;text-indent:0;text-align:start;text-decoration:none;text-decoration-line:none;text-decoration-style:solid;text-decoration-color:#000000;letter-spacing:normal;word-spacing:normal;text-transform:none;writing-mode:lr-tb;direction:ltr;text-orientation:mixed;dominant-baseline:auto;baseline-shift:baseline;text-anchor:start;white-space:normal;shape-padding:0;shape-margin:0;inline-size:0;clip-rule:nonzero;display:inline;overflow:visible;visibility:visible;opacity:1;isolation:auto;mix-blend-mode:normal;color-interpolation:sRGB;color-interpolation-filters:linearRGB;solid-color:#000000;solid-opacity:1;vector-effect:none;fill:#000000;fill-opacity:1;fill-rule:nonzero;stroke:none;stroke-width:0.999998;stroke-linecap:square;stroke-linejoin:miter;stroke-miterlimit:4;stroke-dasharray:none;stroke-dashoffset:0;stroke-opacity:1;color-rendering:auto;image-rendering:auto;shape-rendering:auto;text-rendering:auto;enable-background:accumulate;stop-color:#000000;stop-opacity:1" transform="matrix(0.26326693,0,0,0.26179203,0.01575684,280.21211)"/><path d="m 17.195312,42.8125 v 1.005859 h 0.50586 1.341797 l -3.033203,3.082032 -1.707032,-1.730469 -3.835937,4.132812 -0.210938,0.226563 c -0.8911039,-0.575398 -1.9476046,-0.91211 -3.0820309,-0.912109 -3.1558392,0 -5.7207031,2.583422 -5.7207031,5.757812 0,3.174352 2.5648639,5.759766 5.7207031,5.759766 3.1558389,0 5.7265629,-2.585414 5.7265629,-5.759766 0,-1.669956 -0.715598,-3.171367 -1.84961,-4.224609 l 0.150391,-0.16211 3.130859,-3.371093 1.677735,1.701171 3.724609,-3.785156 v 1.359375 0.5 h 1 v -0.5 V 42.8125 H 17.701172 Z M 6.6738281,51.251953 h 1.0039063 v 0.503906 0.292969 h 0.75 0.4960937 v 1.00586 H 8.4277344 6.4238281 v 0.814453 h 2.5 v 2.833984 H 7.6777344 V 56.994141 57.5 H 6.6738281 V 56.994141 56.703125 H 5.9277344 5.421875 V 55.697266 H 5.9277344 7.9296875 V 54.875 H 5.421875 v -2.826172 h 1.2519531 v -0.292969 z" id="ellipse2880" style="color:#000000;font-style:normal;font-variant:normal;font-weight:normal;font-stretch:normal;font-size:medium;line-height:normal;font-family:sans-serif;font-variant-ligatures:normal;font-variant-position:normal;font-variant-caps:normal;font-variant-numeric:normal;font-variant-alternates:normal;font-variant-east-asian:normal;font-feature-settings:normal;font-variation-settings:normal;text-indent:0;text-align:start;text-decoration:none;text-decoration-line:none;text-decoration-style:solid;text-decoration-color:#000000;letter-spacing:normal;word-spacing:normal;text-transform:none;writing-mode:lr-tb;direction:ltr;text-orientation:mixed;dominant-baseline:auto;baseline-shift:baseline;text-anchor:start;white-space:normal;shape-padding:0;shape-margin:0;inline-size:0;clip-rule:nonzero;display:inline;overflow:visible;visibility:visible;opacity:1;isolation:auto;mix-blend-mode:normal;color-interpolation:sRGB;color-interpolation-filters:linearRGB;solid-color:#000000;solid-opacity:1;vector-effect:none;fill:#000000;fill-opacity:1;fill-rule:nonzero;stroke:none;stroke-width:0.999998;stroke-linecap:butt;stroke-linejoin:miter;stroke-miterlimit:4;stroke-dasharray:none;stroke-dashoffset:0;stroke-opacity:1;paint-order:fill markers stroke;color-rendering:auto;image-rendering:auto;shape-rendering:auto;text-rendering:auto;enable-background:accumulate;stop-color:#000000;stop-opacity:1" transform="matrix(0.26326693,0,0,0.26179203,0.01575684,280.21211)"/></g></svg>